<?xml version="1.0" encoding="UTF-8"?>
<svg xmlns="http://www.w3.org/2000/svg" xmlns:xlink="http://www.w3.org/1999/xlink" width="252pt" height="143.999998pt" viewBox="0 0 252 143.999998" version="1.2">
<defs>
<clipPath id="clip1">
  <path d="M 85.964844 20.972656 L 177.242188 20.972656 L 177.242188 112.253906 L 85.964844 112.253906 Z M 85.964844 20.972656 "/>
</clipPath>
<clipPath id="clip2">
  <path d="M 85.964844 32 L 165 32 L 165 112.253906 L 85.964844 112.253906 Z M 85.964844 32 "/>
</clipPath>
<filter id="alpha" filterUnits="objectBoundingBox" x="0%" y="0%" width="100%" height="100%">
  <feColorMatrix type="matrix" in="SourceGraphic" values="0 0 0 0 1 0 0 0 0 1 0 0 0 0 1 0 0 0 1 0"/>
</filter>
<mask id="mask0">
  <g filter="url(#alpha)">
<rect x="0" y="0" width="252" height="143.999998" style="fill:rgb(0%,0%,0%);fill-opacity:0.6275;stroke:none;"/>
  </g>
</mask>
<clipPath id="clip4">
  <path d="M 33 10 L 77 10 L 77 59 L 33 59 Z M 33 10 "/>
</clipPath>
<clipPath id="clip5">
  <path d="M 56.332031 0.976562 L 83.257812 15.140625 L 60.378906 58.640625 L 33.449219 44.476562 Z M 56.332031 0.976562 "/>
</clipPath>
<clipPath id="clip6">
  <path d="M 27.578125 120.652344 L 0.652344 106.488281 L 56.21875 0.847656 L 83.148438 15.011719 Z M 27.578125 120.652344 "/>
</clipPath>
<clipPath id="clip3">
  <rect x="0" y="0" width="84" height="107"/>
</clipPath>
<g id="surface5" clip-path="url(#clip3)">
<g clip-path="url(#clip4)" clip-rule="nonzero">
<g clip-path="url(#clip5)" clip-rule="nonzero">
<g clip-path="url(#clip6)" clip-rule="nonzero">
<path style=" stroke:none;fill-rule:nonzero;fill:rgb(48.239136%,33.729553%,27.449036%);fill-opacity:1;" d="M 69.273438 18.011719 C 68.796875 17.96875 68.339844 17.925781 67.914062 17.886719 C 68.460938 17.699219 69.015625 17.507812 69.574219 17.316406 C 70.113281 17.402344 70.621094 17.460938 71.09375 17.484375 C 70.851562 17.847656 70.382812 18.113281 69.273438 18.011719 Z M 67.9375 20.023438 C 67.605469 20.261719 67.09375 20.328125 66.421875 20.210938 C 65.34375 20.027344 64.542969 19.898438 63.976562 19.8125 C 64.054688 19.722656 64.132812 19.636719 64.214844 19.554688 L 64.414062 19.347656 C 64.480469 19.277344 64.542969 19.222656 64.605469 19.160156 C 64.636719 19.128906 64.679688 19.089844 64.675781 19.097656 C 64.675781 19.09375 64.679688 19.09375 64.679688 19.089844 L 64.683594 19.082031 L 64.683594 19.078125 C 64.695312 19.074219 64.683594 19.078125 64.671875 19.082031 L 64.804688 19.023438 L 64.921875 18.976562 C 64.957031 18.960938 65 18.945312 65.035156 18.929688 C 65.566406 18.980469 66.832031 19.101562 68.429688 19.25 C 68.339844 19.542969 68.195312 19.835938 67.9375 20.023438 Z M 73.753906 15.726562 C 73.546875 15.855469 73.273438 15.972656 72.914062 16.058594 C 73.191406 15.949219 73.472656 15.835938 73.753906 15.726562 Z M 35.007812 41.308594 C 34.808594 41.738281 34.609375 42.167969 34.414062 42.59375 C 32.878906 46.011719 31.347656 49.464844 29.703125 52.871094 C 28.066406 56.273438 26.34375 59.640625 24.492188 62.835938 C 24.261719 63.230469 24.03125 63.628906 23.800781 64.023438 C 23.558594 64.421875 23.316406 64.816406 23.074219 65.210938 C 22.585938 66 22.105469 66.785156 21.625 67.5625 C 21.128906 68.34375 20.671875 69.140625 20.214844 69.929688 C 19.988281 70.324219 19.753906 70.714844 19.535156 71.109375 C 19.316406 71.507812 19.097656 71.902344 18.882812 72.296875 C 17.164062 75.449219 15.65625 78.585938 14.375 81.621094 C 13.085938 84.65625 12.058594 87.605469 11.199219 90.355469 C 10.328125 93.101562 9.714844 95.671875 9.199219 97.957031 C 9.082031 98.53125 8.972656 99.085938 8.863281 99.621094 C 8.753906 100.15625 8.648438 100.675781 8.570312 101.175781 C 8.488281 101.675781 8.40625 102.15625 8.332031 102.613281 C 8.253906 103.070312 8.179688 103.507812 8.128906 103.929688 C 8.015625 104.769531 7.917969 105.519531 7.832031 106.171875 C 7.761719 106.816406 7.714844 107.359375 7.667969 107.804688 C 7.582031 108.691406 7.535156 109.164062 7.535156 109.164062 C 7.476562 109.765625 7.917969 110.300781 8.519531 110.359375 C 9.121094 110.417969 9.652344 109.980469 9.710938 109.382812 C 9.710938 109.382812 9.757812 108.910156 9.839844 108.023438 C 9.886719 107.582031 9.933594 107.03125 10.003906 106.394531 C 10.082031 105.765625 10.179688 105.046875 10.285156 104.238281 C 10.332031 103.832031 10.402344 103.40625 10.476562 102.960938 C 10.550781 102.511719 10.628906 102.046875 10.707031 101.558594 C 10.78125 101.070312 10.882812 100.566406 10.988281 100.042969 C 11.09375 99.519531 11.203125 98.976562 11.3125 98.414062 C 11.8125 96.1875 12.40625 93.675781 13.25 90.988281 C 14.082031 88.304688 15.082031 85.417969 16.335938 82.445312 C 17.578125 79.46875 19.035156 76.386719 20.703125 73.285156 C 20.914062 72.894531 21.121094 72.507812 21.335938 72.117188 C 21.546875 71.726562 21.773438 71.34375 21.996094 70.953125 C 22.441406 70.175781 22.886719 69.390625 23.367188 68.621094 C 23.839844 67.839844 24.320312 67.054688 24.800781 66.265625 C 25.042969 65.871094 25.28125 65.472656 25.523438 65.074219 C 25.757812 64.664062 25.992188 64.253906 26.230469 63.84375 C 28.105469 60.558594 29.824219 57.15625 31.457031 53.707031 C 33.09375 50.269531 34.621094 46.773438 36.128906 43.367188 C 36.316406 42.941406 36.507812 42.523438 36.699219 42.109375 L 36.984375 41.519531 C 37.027344 41.445312 37.070312 41.371094 37.109375 41.296875 C 37.171875 41.1875 37.230469 41.097656 37.292969 41 C 37.78125 40.210938 38.269531 39.429688 38.753906 38.652344 C 39.722656 37.101562 40.679688 35.566406 41.625 34.054688 C 43.507812 31.035156 45.328125 28.117188 47.054688 25.351562 C 47.484375 24.660156 47.910156 23.976562 48.328125 23.304688 C 48.539062 22.96875 48.746094 22.636719 48.953125 22.304688 C 49.058594 22.136719 49.160156 21.972656 49.261719 21.808594 L 49.300781 21.746094 L 49.320312 21.71875 C 49.316406 21.71875 49.324219 21.710938 49.328125 21.703125 L 49.402344 21.601562 C 49.457031 21.53125 49.484375 21.496094 49.539062 21.429688 C 49.964844 20.933594 50.523438 20.46875 51.082031 20.027344 C 51.648438 19.589844 52.226562 19.175781 52.804688 18.777344 C 54.003906 17.964844 55.097656 17.117188 56.132812 16.332031 C 57.164062 15.546875 58.140625 14.800781 59.0625 14.101562 C 59.519531 13.757812 59.964844 13.425781 60.394531 13.121094 C 60.609375 12.972656 60.820312 12.824219 61.019531 12.699219 C 61.121094 12.632812 61.214844 12.578125 61.289062 12.535156 C 61.289062 12.535156 61.289062 12.535156 61.292969 12.535156 L 61.351562 12.53125 C 61.460938 12.53125 61.523438 12.539062 61.613281 12.539062 C 61.730469 12.542969 61.847656 12.550781 61.960938 12.558594 C 62.195312 12.574219 62.425781 12.589844 62.648438 12.605469 C 63.105469 12.644531 63.539062 12.683594 63.949219 12.722656 C 64.277344 12.75 64.589844 12.78125 64.890625 12.804688 C 64.847656 12.816406 64.804688 12.828125 64.761719 12.835938 L 64.457031 12.898438 L 64.144531 12.957031 C 64.054688 12.96875 63.90625 13.007812 63.777344 13.039062 C 63.65625 13.074219 63.535156 13.105469 63.425781 13.148438 C 62.96875 13.300781 62.558594 13.496094 62.164062 13.703125 C 61.386719 14.121094 60.6875 14.589844 60.03125 15.066406 C 59.375 15.546875 58.765625 16.042969 58.199219 16.5 C 57.636719 16.949219 57.066406 17.375 56.519531 17.757812 C 55.421875 18.539062 54.371094 19.175781 53.410156 19.6875 C 53.339844 19.726562 53.273438 19.761719 53.203125 19.796875 C 53.144531 19.832031 53.085938 19.867188 53.027344 19.898438 C 52.90625 19.972656 52.746094 20.078125 52.636719 20.167969 C 52.40625 20.34375 52.199219 20.523438 52.015625 20.703125 C 51.644531 21.058594 51.335938 21.410156 51.078125 21.738281 C 50.554688 22.398438 50.222656 22.980469 50.03125 23.410156 C 49.984375 23.515625 49.945312 23.617188 49.917969 23.703125 C 49.886719 23.792969 49.863281 23.863281 49.847656 23.929688 C 49.816406 24.058594 49.800781 24.125 49.800781 24.125 C 49.761719 24.292969 49.851562 24.472656 50.019531 24.542969 C 50.207031 24.617188 50.417969 24.53125 50.492188 24.34375 L 50.511719 24.292969 C 50.511719 24.292969 50.53125 24.25 50.566406 24.164062 C 50.578125 24.121094 50.605469 24.070312 50.640625 24.003906 C 50.671875 23.941406 50.710938 23.867188 50.765625 23.78125 C 50.964844 23.449219 51.324219 22.964844 51.855469 22.410156 C 52.121094 22.136719 52.429688 21.84375 52.777344 21.554688 C 52.953125 21.410156 53.140625 21.273438 53.335938 21.144531 C 53.4375 21.082031 53.5 21.042969 53.613281 20.980469 C 53.675781 20.949219 53.734375 20.917969 53.796875 20.886719 C 53.804688 20.882812 53.757812 20.910156 53.785156 20.894531 L 53.796875 20.890625 L 53.820312 20.878906 L 53.871094 20.859375 L 53.964844 20.8125 C 55.015625 20.34375 56.15625 19.714844 57.335938 18.945312 C 57.921875 18.550781 58.511719 18.128906 59.121094 17.664062 C 59.71875 17.207031 60.300781 16.730469 60.921875 16.285156 C 61.542969 15.835938 62.195312 15.40625 62.882812 15.046875 C 63.222656 14.867188 63.570312 14.710938 63.917969 14.59375 C 64.007812 14.5625 64.089844 14.542969 64.175781 14.515625 C 64.253906 14.5 64.3125 14.480469 64.429688 14.460938 L 64.753906 14.402344 L 65.082031 14.335938 C 66.765625 13.972656 68.507812 13.59375 70.277344 13.207031 C 71.15625 13.019531 72.046875 12.839844 72.933594 12.679688 C 73.15625 12.636719 73.371094 12.605469 73.589844 12.566406 C 73.804688 12.53125 74.039062 12.5 74.265625 12.464844 C 74.4375 12.445312 74.632812 12.429688 74.785156 12.445312 C 74.933594 12.457031 75.058594 12.492188 75.09375 12.519531 C 75.128906 12.546875 75.105469 12.511719 75.121094 12.554688 C 75.128906 12.59375 75.121094 12.710938 75.078125 12.84375 C 74.984375 13.113281 74.769531 13.414062 74.515625 13.640625 C 74.390625 13.757812 74.242188 13.859375 74.113281 13.929688 C 74.082031 13.945312 74.070312 13.957031 74.007812 13.984375 L 73.929688 14.019531 L 73.910156 14.027344 C 73.898438 14.03125 73.898438 14.03125 73.902344 14.03125 L 73.871094 14.042969 L 73.550781 14.175781 C 73.128906 14.347656 72.710938 14.519531 72.292969 14.691406 C 71.460938 15.03125 70.628906 15.375 69.824219 15.671875 C 68.988281 15.96875 68.164062 16.261719 67.351562 16.550781 C 66.539062 16.84375 65.742188 17.132812 64.957031 17.4375 C 64.753906 17.515625 64.574219 17.585938 64.351562 17.679688 L 64.1875 17.75 L 64.050781 17.816406 C 64.050781 17.816406 63.988281 17.847656 64 17.84375 L 63.972656 17.863281 L 63.914062 17.902344 L 63.800781 17.988281 C 63.710938 18.054688 63.683594 18.089844 63.640625 18.128906 C 63.5625 18.207031 63.476562 18.289062 63.402344 18.367188 L 63.1875 18.59375 C 63.042969 18.746094 62.914062 18.898438 62.777344 19.046875 C 61.71875 20.246094 60.773438 21.402344 59.910156 22.488281 C 59.480469 23.035156 59.070312 23.558594 58.695312 24.070312 C 58.3125 24.578125 57.964844 25.0625 57.636719 25.566406 C 57.554688 25.699219 57.472656 25.832031 57.394531 25.964844 C 57.359375 26.023438 57.328125 26.082031 57.300781 26.140625 L 57.210938 26.308594 C 57.179688 26.375 57.199219 26.332031 57.191406 26.351562 C 57.160156 26.441406 57.128906 26.527344 57.101562 26.613281 L 57.0625 26.746094 L 57.042969 26.878906 C 57.03125 26.96875 57.019531 27.054688 57.011719 27.144531 C 57.011719 27.230469 57.015625 27.316406 57.019531 27.398438 C 57.078125 28.082031 57.378906 28.5625 57.648438 28.933594 C 58.210938 29.675781 58.761719 30.074219 59.144531 30.347656 C 59.160156 30.359375 59.175781 30.367188 59.191406 30.378906 C 59.003906 30.46875 58.824219 30.5625 58.667969 30.644531 C 58.257812 30.855469 57.949219 31.03125 57.742188 31.160156 C 57.535156 31.285156 57.414062 31.378906 57.414062 31.378906 C 57.332031 31.4375 57.292969 31.546875 57.320312 31.652344 C 57.355469 31.789062 57.5 31.871094 57.636719 31.835938 L 57.671875 31.824219 C 57.671875 31.824219 57.78125 31.796875 57.992188 31.738281 C 58.222656 31.679688 58.558594 31.585938 59 31.46875 C 59.441406 31.339844 59.984375 31.183594 60.621094 30.96875 C 60.78125 30.914062 60.949219 30.855469 61.121094 30.789062 L 61.257812 30.738281 C 61.296875 30.722656 61.371094 30.6875 61.425781 30.664062 L 61.507812 30.621094 L 61.585938 30.582031 C 61.5625 30.597656 61.636719 30.550781 61.636719 30.550781 L 61.671875 30.53125 L 61.738281 30.484375 C 62.066406 30.261719 62.394531 30.023438 62.738281 29.761719 C 64.101562 28.703125 65.699219 27.359375 67.464844 25.742188 C 67.898438 25.335938 68.34375 24.921875 68.804688 24.492188 C 69.226562 24.113281 69.703125 23.78125 70.207031 23.597656 C 70.707031 23.414062 71.214844 23.394531 71.636719 23.597656 C 72.058594 23.789062 72.398438 24.222656 72.503906 24.71875 C 72.558594 24.964844 72.554688 25.222656 72.492188 25.457031 C 72.457031 25.574219 72.414062 25.683594 72.351562 25.789062 C 72.320312 25.839844 72.277344 25.898438 72.257812 25.929688 C 72.253906 25.933594 72.238281 25.953125 72.222656 25.972656 L 72.175781 26.027344 L 72.089844 26.125 C 71.589844 26.699219 71.085938 27.277344 70.566406 27.863281 C 70.042969 28.445312 69.507812 29.03125 68.957031 29.605469 C 68.683594 29.894531 68.398438 30.179688 68.117188 30.441406 C 67.976562 30.570312 67.832031 30.699219 67.710938 30.785156 C 67.707031 30.789062 67.703125 30.792969 67.695312 30.796875 C 67.691406 30.800781 67.691406 30.804688 67.660156 30.820312 L 67.628906 30.839844 C 67.632812 30.839844 67.570312 30.875 67.628906 30.84375 L 67.511719 30.910156 C 67.371094 30.996094 67.277344 31.066406 67.179688 31.136719 C 66.8125 31.425781 66.492188 31.707031 66.167969 31.996094 C 65.84375 32.28125 65.527344 32.574219 65.210938 32.867188 C 64.578125 33.457031 63.945312 34.054688 63.300781 34.65625 C 62.660156 35.253906 62.011719 35.863281 61.359375 36.441406 C 61.195312 36.585938 61.035156 36.726562 60.886719 36.839844 L 60.613281 37.050781 L 60.339844 37.269531 C 59.988281 37.550781 59.632812 37.832031 59.277344 38.117188 C 57.871094 39.230469 56.390625 40.285156 54.792969 41.09375 C 54.394531 41.296875 53.992188 41.480469 53.582031 41.640625 C 53.375 41.722656 53.167969 41.792969 52.960938 41.859375 L 52.652344 41.957031 L 52.355469 42.035156 L 51.652344 42.1875 C 51.402344 42.246094 51.148438 42.316406 50.894531 42.390625 C 50.386719 42.546875 49.886719 42.753906 49.402344 43.015625 C 48.433594 43.527344 47.578125 44.320312 46.957031 45.203125 C 46.332031 46.082031 45.898438 47.019531 45.480469 47.875 L 45.316406 48.207031 C 45.28125 48.285156 45.246094 48.367188 45.21875 48.433594 C 45.191406 48.503906 45.164062 48.574219 45.144531 48.636719 C 45.050781 48.902344 44.976562 49.148438 44.90625 49.394531 C 44.769531 49.886719 44.648438 50.367188 44.535156 50.847656 C 44.308594 51.8125 44.105469 52.773438 43.910156 53.734375 C 43.136719 57.574219 42.464844 61.421875 41.832031 65.210938 C 41.199219 69.003906 40.609375 72.738281 40.070312 76.359375 C 39.800781 78.167969 39.542969 79.949219 39.300781 81.695312 C 39.183594 82.570312 39.0625 83.433594 38.949219 84.289062 C 38.890625 84.710938 38.832031 85.128906 38.773438 85.546875 C 38.71875 85.957031 38.65625 86.367188 38.589844 86.773438 C 38.054688 90.019531 37.289062 93.050781 36.445312 95.804688 C 35.597656 98.5625 34.675781 101.042969 33.777344 103.210938 C 32.878906 105.375 32.015625 107.230469 31.269531 108.738281 C 30.523438 110.246094 29.890625 111.402344 29.449219 112.179688 C 29.226562 112.574219 29.058594 112.855469 28.9375 113.058594 C 28.816406 113.261719 28.753906 113.367188 28.753906 113.367188 C 28.441406 113.878906 28.609375 114.550781 29.128906 114.863281 C 29.644531 115.175781 30.316406 115.011719 30.628906 114.496094 C 30.628906 114.496094 30.691406 114.390625 30.8125 114.1875 C 30.933594 113.988281 31.125 113.667969 31.355469 113.265625 C 31.8125 112.457031 32.46875 111.265625 33.238281 109.71875 C 34.011719 108.171875 34.894531 106.273438 35.808594 104.050781 C 36.722656 101.828125 37.664062 99.28125 38.53125 96.449219 C 39.394531 93.617188 40.179688 90.492188 40.722656 87.125 C 40.792969 86.707031 40.859375 86.28125 40.917969 85.851562 C 40.976562 85.421875 41.035156 84.996094 41.085938 84.570312 C 41.195312 83.722656 41.308594 82.859375 41.421875 81.992188 C 41.648438 80.25 41.894531 78.476562 42.152344 76.667969 C 42.667969 73.058594 43.230469 69.328125 43.835938 65.546875 C 44.445312 61.765625 45.089844 57.925781 45.832031 54.121094 C 46.019531 53.171875 46.214844 52.226562 46.425781 51.292969 C 46.535156 50.828125 46.644531 50.363281 46.769531 49.917969 C 46.828125 49.695312 46.894531 49.476562 46.960938 49.28125 C 46.976562 49.230469 46.992188 49.183594 47.011719 49.144531 C 47.027344 49.097656 47.042969 49.066406 47.054688 49.035156 L 47.210938 48.710938 C 47.628906 47.824219 48.011719 46.988281 48.503906 46.292969 C 48.988281 45.589844 49.578125 45.035156 50.304688 44.636719 C 50.664062 44.4375 51.050781 44.273438 51.457031 44.140625 C 51.660156 44.078125 51.867188 44.019531 52.078125 43.96875 L 52.773438 43.808594 L 53.167969 43.699219 L 53.535156 43.582031 C 53.78125 43.5 54.019531 43.410156 54.253906 43.316406 C 54.722656 43.125 55.175781 42.914062 55.617188 42.6875 C 57.375 41.769531 58.917969 40.632812 60.363281 39.46875 C 60.71875 39.175781 61.070312 38.886719 61.421875 38.597656 L 61.679688 38.390625 L 61.9375 38.1875 C 62.144531 38.023438 62.320312 37.867188 62.496094 37.710938 C 63.179688 37.09375 63.820312 36.476562 64.457031 35.863281 C 65.089844 35.257812 65.714844 34.65625 66.335938 34.0625 C 66.644531 33.769531 66.953125 33.480469 67.261719 33.203125 C 67.566406 32.921875 67.878906 32.644531 68.171875 32.414062 L 68.273438 32.335938 C 68.296875 32.320312 68.339844 32.289062 68.351562 32.28125 C 68.355469 32.28125 68.363281 32.277344 68.367188 32.269531 L 68.46875 32.210938 C 68.488281 32.203125 68.527344 32.175781 68.566406 32.152344 L 68.679688 32.070312 C 68.890625 31.910156 69.050781 31.757812 69.214844 31.605469 C 69.535156 31.304688 69.824219 31 70.109375 30.699219 C 70.679688 30.09375 71.214844 29.492188 71.738281 28.894531 C 72.257812 28.296875 72.765625 27.703125 73.257812 27.121094 L 73.359375 27.003906 L 73.402344 26.949219 L 73.457031 26.882812 C 73.546875 26.761719 73.613281 26.664062 73.675781 26.550781 C 73.804688 26.328125 73.898438 26.089844 73.960938 25.847656 C 74.089844 25.359375 74.085938 24.855469 73.976562 24.390625 C 73.761719 23.460938 73.121094 22.644531 72.257812 22.253906 C 71.832031 22.058594 71.363281 21.972656 70.921875 21.980469 C 70.480469 21.992188 70.0625 22.089844 69.6875 22.230469 C 68.9375 22.519531 68.339844 22.964844 67.832031 23.429688 C 67.371094 23.867188 66.925781 24.289062 66.496094 24.703125 C 64.777344 26.3125 63.210938 27.648438 61.898438 28.707031 C 61.578125 28.972656 61.269531 29.222656 60.984375 29.457031 L 60.933594 29.492188 L 60.910156 29.511719 C 60.910156 29.511719 60.910156 29.511719 60.914062 29.511719 L 60.855469 29.546875 C 60.835938 29.558594 60.832031 29.5625 60.816406 29.570312 C 60.789062 29.582031 60.78125 29.59375 60.738281 29.613281 L 60.625 29.671875 C 60.542969 29.710938 60.464844 29.75 60.382812 29.789062 C 60.367188 29.777344 60.351562 29.761719 60.335938 29.753906 L 60.332031 29.75 C 60.332031 29.75 60.28125 29.71875 60.191406 29.660156 C 60.101562 29.601562 59.996094 29.53125 59.835938 29.40625 C 59.679688 29.28125 59.488281 29.125 59.289062 28.925781 C 59.085938 28.730469 58.859375 28.492188 58.667969 28.210938 C 58.480469 27.933594 58.316406 27.605469 58.304688 27.3125 L 58.300781 27.199219 C 58.308594 27.164062 58.316406 27.128906 58.320312 27.097656 L 58.324219 27.042969 L 58.347656 26.992188 C 58.359375 26.957031 58.371094 26.921875 58.382812 26.882812 C 58.4375 26.78125 58.496094 26.675781 58.554688 26.570312 C 58.617188 26.472656 58.683594 26.371094 58.75 26.273438 C 59.039062 25.839844 59.386719 25.359375 59.761719 24.871094 C 60.132812 24.378906 60.542969 23.867188 60.96875 23.335938 C 61.578125 22.582031 62.234375 21.789062 62.9375 20.980469 C 63.375 21.042969 64.40625 21.191406 66.203125 21.5 C 67.238281 21.679688 68.082031 21.539062 68.710938 21.082031 C 69.371094 20.605469 69.636719 19.898438 69.765625 19.339844 C 71.777344 19.320312 72.320312 18.144531 72.546875 17.449219 C 73.503906 17.335938 74.269531 17.042969 74.824219 16.5625 C 75.421875 16.046875 75.753906 15.34375 75.800781 14.515625 C 76.105469 14.1875 76.355469 13.8125 76.527344 13.347656 C 76.625 13.046875 76.703125 12.699219 76.628906 12.285156 C 76.597656 12.082031 76.511719 11.863281 76.382812 11.671875 C 76.25 11.480469 76.082031 11.328125 75.902344 11.21875 C 75.542969 10.996094 75.203125 10.941406 74.898438 10.910156 C 74.589844 10.886719 74.324219 10.910156 74.042969 10.941406 C 73.8125 10.976562 73.59375 11 73.355469 11.039062 C 73.121094 11.078125 72.882812 11.117188 72.65625 11.15625 C 71.738281 11.316406 70.839844 11.5 69.949219 11.683594 C 69.652344 11.746094 69.355469 11.8125 69.0625 11.875 C 68.839844 11.835938 68.46875 11.777344 67.957031 11.695312 C 67.070312 11.554688 65.773438 11.371094 64.109375 11.160156 C 63.691406 11.113281 63.25 11.066406 62.789062 11.015625 C 62.554688 10.996094 62.3125 10.972656 62.066406 10.949219 C 61.941406 10.941406 61.816406 10.933594 61.6875 10.921875 C 61.53125 10.914062 61.347656 10.910156 61.203125 10.910156 L 61.109375 10.917969 L 61.039062 10.917969 C 60.886719 10.9375 60.957031 10.933594 60.90625 10.941406 C 60.6875 11 60.636719 11.039062 60.539062 11.082031 C 60.386719 11.160156 60.257812 11.234375 60.140625 11.308594 C 59.894531 11.460938 59.671875 11.617188 59.441406 11.777344 C 58.988281 12.09375 58.53125 12.425781 58.0625 12.773438 C 57.136719 13.472656 56.152344 14.214844 55.113281 14.996094 C 54.074219 15.773438 53 16.59375 51.835938 17.375 C 51.238281 17.78125 50.636719 18.207031 50.027344 18.675781 C 49.421875 19.148438 48.804688 19.640625 48.222656 20.308594 C 48.152344 20.390625 48.058594 20.503906 48 20.582031 L 47.914062 20.699219 C 47.859375 20.777344 47.886719 20.738281 47.871094 20.765625 L 47.851562 20.796875 L 47.8125 20.855469 C 47.710938 21.019531 47.605469 21.183594 47.503906 21.347656 C 47.292969 21.679688 47.082031 22.011719 46.871094 22.347656 C 46.449219 23.015625 46.019531 23.695312 45.582031 24.386719 C 43.84375 27.144531 42.003906 30.050781 40.105469 33.058594 C 39.15625 34.5625 38.1875 36.089844 37.210938 37.640625 C 36.722656 38.414062 36.230469 39.191406 35.734375 39.972656 C 35.675781 40.070312 35.609375 40.171875 35.554688 40.265625 L 35.335938 40.648438 C 35.214844 40.878906 35.117188 41.085938 35.007812 41.308594 "/>
</g>
</g>
</g>
</g>
</defs>
<g id="surface1">
<g clip-path="url(#clip1)" clip-rule="nonzero">
<path style=" stroke:none;fill-rule:nonzero;fill:rgb(77.249146%,60.389709%,29.019165%);fill-opacity:1;" d="M 139.59375 107.878906 C 138.230469 108.140625 136.84375 108.335938 135.4375 108.464844 C 133.507812 107.199219 131.46875 105.769531 129.320312 104.136719 C 110.75 90.054688 122.027344 74.230469 128.914062 71.519531 C 129.320312 72.921875 133.847656 77.511719 139.789062 76.636719 C 142.902344 78.675781 151.960938 81.996094 151.960938 81.996094 C 151.960938 81.996094 151.210938 82.457031 152.5 84.28125 C 153.789062 86.109375 159.644531 85.941406 161.597656 84.527344 C 163.550781 83.117188 163.839844 77.21875 164.335938 74.851562 C 164.835938 72.484375 155.179688 62.636719 154.867188 59.960938 C 154.554688 57.277344 153.125 52.171875 147.359375 48.554688 C 147.359375 48.554688 148.949219 48.214844 150.007812 49.585938 C 151.066406 50.957031 153.464844 51.484375 154.960938 50.925781 C 154.960938 50.925781 154.085938 50.925781 153 50.304688 C 154.648438 50.707031 156.769531 49.742188 157.421875 48.496094 C 156.550781 49.085938 154.867188 49.398438 153 48.617188 C 153.433594 48.710938 154.585938 48.371094 155.460938 47.527344 C 152.71875 47.621094 151.421875 45.066406 148.636719 44.945312 C 150.171875 42.867188 147.722656 39.085938 147.929688 36.011719 C 147.929688 36.011719 145.523438 38.003906 144.648438 40.769531 L 144.023438 45.066406 C 144.023438 40.957031 140.414062 32.355469 140.414062 32.355469 C 140.414062 32.355469 134.058594 38.210938 136.671875 43.816406 C 136.355469 43.660156 117.28125 34.121094 93.304688 51.171875 C 92.933594 51.4375 92.566406 51.707031 92.203125 51.980469 C 98.140625 35.988281 113.546875 24.589844 131.605469 24.589844 C 154.816406 24.589844 173.628906 43.40625 173.628906 66.613281 C 173.628906 87.089844 158.980469 104.148438 139.59375 107.878906 Z M 131.605469 20.972656 C 109.984375 20.972656 91.867188 36.015625 87.160156 56.207031 C 86.378906 59.546875 85.964844 63.03125 85.964844 66.613281 C 85.964844 91.820312 106.402344 112.253906 131.605469 112.253906 C 134.570312 112.253906 137.46875 111.972656 140.277344 111.425781 C 161.335938 107.375 177.242188 88.855469 177.242188 66.613281 C 177.242188 41.410156 156.808594 20.972656 131.605469 20.972656 "/>
</g>
<path style=" stroke:none;fill-rule:nonzero;fill:rgb(77.249146%,60.389709%,29.019165%);fill-opacity:1;" d="M 164.335938 74.851562 C 163.839844 77.21875 163.550781 83.117188 161.597656 84.527344 C 159.644531 85.941406 153.789062 86.109375 152.5 84.28125 C 151.210938 82.457031 151.960938 81.996094 151.960938 81.996094 C 151.960938 81.996094 142.902344 78.675781 139.789062 76.636719 C 133.847656 77.511719 129.320312 72.921875 128.914062 71.519531 C 122.027344 74.230469 110.75 90.054688 129.320312 104.136719 C 131.46875 105.769531 133.507812 107.199219 135.4375 108.464844 C 134.175781 108.582031 132.898438 108.636719 131.605469 108.636719 C 108.394531 108.636719 89.582031 89.824219 89.582031 66.613281 C 89.582031 63.316406 89.960938 60.105469 90.679688 57.03125 C 91.082031 55.300781 91.589844 53.617188 92.203125 51.980469 C 92.566406 51.707031 92.933594 51.4375 93.304688 51.171875 C 117.28125 34.121094 136.355469 43.660156 136.671875 43.816406 C 134.058594 38.210938 140.414062 32.355469 140.414062 32.355469 C 140.414062 32.355469 144.023438 40.957031 144.023438 45.066406 L 144.648438 40.769531 C 145.523438 38.003906 147.929688 36.011719 147.929688 36.011719 C 147.722656 39.085938 150.171875 42.867188 148.636719 44.945312 C 151.421875 45.066406 152.71875 47.621094 155.460938 47.527344 C 154.585938 48.371094 153.433594 48.710938 153 48.617188 C 154.867188 49.398438 156.550781 49.085938 157.421875 48.496094 C 156.769531 49.742188 154.648438 50.707031 153 50.304688 C 154.085938 50.925781 154.960938 50.925781 154.960938 50.925781 C 153.464844 51.484375 151.066406 50.957031 150.007812 49.585938 C 148.949219 48.214844 147.359375 48.554688 147.359375 48.554688 C 153.125 52.171875 154.554688 57.277344 154.867188 59.960938 C 155.179688 62.636719 164.835938 72.484375 164.335938 74.851562 "/>
<g clip-path="url(#clip2)" clip-rule="nonzero">
<path style=" stroke:none;fill-rule:nonzero;fill:rgb(77.249146%,60.389709%,29.019165%);fill-opacity:1;" d="M 164.335938 74.851562 C 163.839844 77.21875 163.550781 83.117188 161.597656 84.527344 C 159.644531 85.941406 153.789062 86.109375 152.5 84.28125 C 151.210938 82.457031 151.960938 81.996094 151.960938 81.996094 C 151.960938 81.996094 142.902344 78.675781 139.789062 76.636719 C 133.847656 77.511719 129.320312 72.921875 128.914062 71.519531 C 122.027344 74.230469 110.75 90.054688 129.320312 104.136719 C 131.46875 105.769531 133.507812 107.199219 135.4375 108.464844 C 137.144531 109.582031 138.753906 110.566406 140.277344 111.425781 C 137.46875 111.972656 134.570312 112.253906 131.605469 112.253906 C 106.402344 112.253906 85.964844 91.820312 85.964844 66.613281 C 85.964844 63.03125 86.378906 59.546875 87.160156 56.207031 C 88.722656 54.730469 90.402344 53.320312 92.203125 51.980469 C 92.566406 51.707031 92.933594 51.4375 93.304688 51.171875 C 117.28125 34.121094 136.355469 43.660156 136.671875 43.816406 C 134.058594 38.210938 140.414062 32.355469 140.414062 32.355469 C 140.414062 32.355469 144.023438 40.957031 144.023438 45.066406 L 144.648438 40.769531 C 145.523438 38.003906 147.929688 36.011719 147.929688 36.011719 C 147.722656 39.085938 150.171875 42.867188 148.636719 44.945312 C 151.421875 45.066406 152.71875 47.621094 155.460938 47.527344 C 154.585938 48.371094 153.433594 48.710938 153 48.617188 C 154.867188 49.398438 156.550781 49.085938 157.421875 48.496094 C 156.769531 49.742188 154.648438 50.707031 153 50.304688 C 154.085938 50.925781 154.960938 50.925781 154.960938 50.925781 C 153.464844 51.484375 151.066406 50.957031 150.007812 49.585938 C 148.949219 48.214844 147.359375 48.554688 147.359375 48.554688 C 153.125 52.171875 154.554688 57.277344 154.867188 59.960938 C 155.179688 62.636719 164.835938 72.484375 164.335938 74.851562 "/>
</g>
<use xlink:href="#surface5" transform="matrix(1,0,0,1,53,37)" mask="url(#mask0)"/>
</g>
</svg>
